M48
; DRILL file {KiCad 7.0.10} date Thu Mar 14 19:30:55 2024
; FORMAT={-:-/ absolute / inch / decimal}
; #@! TF.CreationDate,2024-03-14T19:30:55-04:00
; #@! TF.GenerationSoftware,Kicad,Pcbnew,7.0.10
; #@! TF.FileFunction,Plated,1,2,PTH
FMAT,2
INCH
; #@! TA.AperFunction,Plated,PTH,ComponentDrill
T1C0.0315
; #@! TA.AperFunction,Plated,PTH,ComponentDrill
T2C0.0394
; #@! TA.AperFunction,Plated,PTH,ComponentDrill
T3C0.0433
; #@! TA.AperFunction,Plated,PTH,ComponentDrill
T4C0.0472
; #@! TA.AperFunction,Plated,PTH,ComponentDrill
T5C0.1171
; #@! TA.AperFunction,Plated,PTH,ComponentDrill
T6C0.1433
%
G90
G05
T1
X1.71Y-1.83
X1.71Y-1.9284
X1.71Y-2.0269
X2.15Y-1.7482
X2.15Y-2.1482
X2.36Y-1.7482
X2.36Y-2.1482
X2.5763Y-2.79
X2.58Y-1.7482
X2.58Y-2.1482
X2.97Y-2.3516
X2.97Y-2.5484
X2.97Y-2.79
X3.04Y-1.7482
X3.04Y-2.0482
X3.29Y-1.7482
X3.29Y-2.0482
T2
X1.65Y-1.32
X1.75Y-1.32
X1.85Y-1.32
X2.1599Y-1.32
X2.2599Y-1.32
X2.3599Y-1.32
X2.6699Y-1.32
X2.7699Y-1.32
X2.8699Y-1.32
X3.1798Y-1.32
X3.2798Y-1.32
X3.3798Y-1.32
T3
X2.84Y-1.76
X2.84Y-2.16
T4
X3.3531Y-2.34
X3.4516Y-2.34
X3.55Y-2.34
T5
X3.2783Y-2.6156
X3.6248Y-2.6156
T6
X1.95Y-2.5073
X2.0701Y-2.7002
X2.1862Y-2.5073
M30
