%TF.GenerationSoftware,KiCad,Pcbnew,7.0.10*%
%TF.CreationDate,2024-03-14T19:30:55-04:00*%
%TF.ProjectId,Fan Speed Controller,46616e20-5370-4656-9564-20436f6e7472,rev?*%
%TF.SameCoordinates,Original*%
%TF.FileFunction,Copper,L2,Bot*%
%TF.FilePolarity,Positive*%
%FSLAX46Y46*%
G04 Gerber Fmt 4.6, Leading zero omitted, Abs format (unit mm)*
G04 Created by KiCad (PCBNEW 7.0.10) date 2024-03-14 19:30:55*
%MOMM*%
%LPD*%
G01*
G04 APERTURE LIST*
%TA.AperFunction,ComponentPad*%
%ADD10C,1.600000*%
%TD*%
%TA.AperFunction,ComponentPad*%
%ADD11O,1.600000X1.600000*%
%TD*%
%TA.AperFunction,ComponentPad*%
%ADD12C,1.800000*%
%TD*%
%TA.AperFunction,ComponentPad*%
%ADD13C,4.460000*%
%TD*%
%TA.AperFunction,ComponentPad*%
%ADD14C,5.460000*%
%TD*%
%TA.AperFunction,ComponentPad*%
%ADD15C,1.300000*%
%TD*%
%TA.AperFunction,ComponentPad*%
%ADD16R,1.300000X1.300000*%
%TD*%
%TA.AperFunction,ComponentPad*%
%ADD17R,1.600000X1.600000*%
%TD*%
%TA.AperFunction,ComponentPad*%
%ADD18R,1.500000X1.500000*%
%TD*%
%TA.AperFunction,ComponentPad*%
%ADD19C,1.500000*%
%TD*%
%TA.AperFunction,ComponentPad*%
%ADD20O,2.200000X2.200000*%
%TD*%
%TA.AperFunction,ComponentPad*%
%ADD21R,2.200000X2.200000*%
%TD*%
%TA.AperFunction,Conductor*%
%ADD22C,0.250000*%
%TD*%
G04 APERTURE END LIST*
D10*
%TO.P,R3,1*%
%TO.N,Net-(D2-A)*%
X65532000Y-54564000D03*
D11*
%TO.P,R3,2*%
%TO.N,+12V*%
X65532000Y-44404000D03*
%TD*%
D10*
%TO.P,R2,1*%
%TO.N,Net-(IC1-OUTPUT)*%
X54610000Y-44404000D03*
D11*
%TO.P,R2,2*%
%TO.N,GND*%
X54610000Y-54564000D03*
%TD*%
D10*
%TO.P,R1,1*%
%TO.N,Net-(IC1-OUTPUT)*%
X59944000Y-44404000D03*
D11*
%TO.P,R1,2*%
%TO.N,Net-(Q1-G)*%
X59944000Y-54564000D03*
%TD*%
D10*
%TO.P,C1,1*%
%TO.N,Net-(IC1-CONTROL_VOLTAGE)*%
X65438000Y-70866000D03*
D11*
%TO.P,C1,2*%
%TO.N,GND*%
X75438000Y-70866000D03*
%TD*%
D10*
%TO.P,C2,1*%
%TO.N,Net-(C2-Pad1)*%
X75438000Y-59730000D03*
%TO.P,C2,2*%
%TO.N,GND*%
X75438000Y-64730000D03*
%TD*%
D12*
%TO.P,R4,1,1*%
%TO.N,Net-(D2-K)*%
X90170000Y-59436000D03*
%TO.P,R4,2,2*%
%TO.N,Net-(C2-Pad1)*%
X87670000Y-59436000D03*
%TO.P,R4,3,3*%
%TO.N,Net-(D3-A)*%
X85170000Y-59436000D03*
D13*
%TO.P,R4,4*%
%TO.N,N/C*%
X92070000Y-66436000D03*
%TO.P,R4,5*%
X83270000Y-66436000D03*
%TD*%
D14*
%TO.P,J5,A,A*%
%TO.N,Net-(S1-COM)*%
X55530000Y-63685000D03*
%TO.P,J5,B,B*%
%TO.N,unconnected-(J5-PadB)*%
X52580000Y-68585000D03*
%TO.P,J5,C,C*%
%TO.N,GND*%
X49530000Y-63685000D03*
%TD*%
D15*
%TO.P,S1,3,NO*%
%TO.N,+12V*%
X43434000Y-46482000D03*
%TO.P,S1,2,COM*%
%TO.N,Net-(S1-COM)*%
X43434000Y-48982000D03*
D16*
%TO.P,S1,1,NC*%
%TO.N,unconnected-(S1-NC-Pad1)*%
X43434000Y-51482000D03*
%TD*%
D11*
%TO.P,D2,2,A*%
%TO.N,Net-(D2-A)*%
X83566000Y-44404000D03*
D17*
%TO.P,D2,1,K*%
%TO.N,Net-(D2-K)*%
X83566000Y-52024000D03*
%TD*%
D18*
%TO.P,J2,1,1*%
%TO.N,GND*%
X54862300Y-33528000D03*
D19*
%TO.P,J2,2,2*%
%TO.N,+12V*%
X57402300Y-33528000D03*
%TO.P,J2,3,3*%
%TO.N,GND*%
X59942300Y-33528000D03*
%TD*%
%TO.P,J4,3,3*%
%TO.N,GND*%
X85847000Y-33528000D03*
%TO.P,J4,2,2*%
%TO.N,+12V*%
X83307000Y-33528000D03*
D18*
%TO.P,J4,1,1*%
%TO.N,GND*%
X80767000Y-33528000D03*
%TD*%
%TO.P,J1,1,1*%
%TO.N,GND*%
X41910000Y-33528000D03*
D19*
%TO.P,J1,2,2*%
%TO.N,+12V*%
X44450000Y-33528000D03*
%TO.P,J1,3,3*%
%TO.N,GND*%
X46990000Y-33528000D03*
%TD*%
D11*
%TO.P,D3,2,A*%
%TO.N,Net-(D3-A)*%
X77216000Y-52024000D03*
D17*
%TO.P,D3,1,K*%
%TO.N,Net-(D2-A)*%
X77216000Y-44404000D03*
%TD*%
D18*
%TO.P,J3,1,1*%
%TO.N,GND*%
X67814700Y-33528000D03*
D19*
%TO.P,J3,2,2*%
%TO.N,+12V*%
X70354700Y-33528000D03*
%TO.P,J3,3,3*%
%TO.N,GND*%
X72894700Y-33528000D03*
%TD*%
D20*
%TO.P,D1,2,A*%
%TO.N,Net-(D1-A)*%
X72136000Y-54864000D03*
D21*
%TO.P,D1,1,K*%
%TO.N,+12V*%
X72136000Y-44704000D03*
%TD*%
D22*
%TO.N,GND*%
X69910900Y-32451100D02*
X68834000Y-33528000D01*
X68834000Y-33528000D02*
X67814700Y-33528000D01*
X71817800Y-32451100D02*
X69910900Y-32451100D01*
X72894700Y-33528000D02*
X71817800Y-32451100D01*
%TO.N,Net-(D3-A)*%
X85170000Y-59008000D02*
X85170000Y-59436000D01*
X77216000Y-52024000D02*
X78186000Y-52024000D01*
X78186000Y-52024000D02*
X85170000Y-59008000D01*
%TO.N,Net-(D2-K)*%
X83566000Y-52832000D02*
X90170000Y-59436000D01*
X83566000Y-52024000D02*
X83566000Y-52832000D01*
%TO.N,GND*%
X81534000Y-33528000D02*
X82610900Y-32451100D01*
X80767000Y-33528000D02*
X81534000Y-33528000D01*
X82610900Y-32451100D02*
X84770100Y-32451100D01*
X84770100Y-32451100D02*
X85847000Y-33528000D01*
%TO.N,Net-(S1-COM)*%
X55530000Y-61078000D02*
X55530000Y-63685000D01*
X43434000Y-48982000D02*
X55530000Y-61078000D01*
%TO.N,GND*%
X54862300Y-33528000D02*
X54862300Y-34604900D01*
X54610000Y-54564000D02*
X54610000Y-53437100D01*
X75438000Y-64730000D02*
X75438000Y-70866000D01*
X54862300Y-34604900D02*
X55767800Y-35510400D01*
X55767800Y-52279300D02*
X54610000Y-53437100D01*
X55767800Y-35510400D02*
X55767800Y-52279300D01*
X67814700Y-33528000D02*
X66737800Y-33528000D01*
X57959900Y-35510400D02*
X59942300Y-33528000D01*
X55767800Y-35510400D02*
X57959900Y-35510400D01*
X59942300Y-33528000D02*
X66737800Y-33528000D01*
%TO.N,Net-(D2-A)*%
X65929100Y-54564000D02*
X65532000Y-54564000D01*
X76089100Y-44404000D02*
X65929100Y-54564000D01*
X77216000Y-44404000D02*
X76089100Y-44404000D01*
%TD*%
M02*
