%TF.GenerationSoftware,KiCad,Pcbnew,7.0.10*%
%TF.CreationDate,2024-03-14T19:30:55-04:00*%
%TF.ProjectId,Fan Speed Controller,46616e20-5370-4656-9564-20436f6e7472,rev?*%
%TF.SameCoordinates,Original*%
%TF.FileFunction,Legend,Top*%
%TF.FilePolarity,Positive*%
%FSLAX46Y46*%
G04 Gerber Fmt 4.6, Leading zero omitted, Abs format (unit mm)*
G04 Created by KiCad (PCBNEW 7.0.10) date 2024-03-14 19:30:55*
%MOMM*%
%LPD*%
G01*
G04 APERTURE LIST*
%ADD10C,0.150000*%
%ADD11C,0.254000*%
%ADD12C,0.120000*%
%ADD13C,0.100000*%
%ADD14C,0.200000*%
%ADD15C,1.600000*%
%ADD16O,1.600000X1.600000*%
%ADD17C,1.800000*%
%ADD18C,4.460000*%
%ADD19C,5.460000*%
%ADD20C,1.300000*%
%ADD21R,1.300000X1.300000*%
%ADD22R,1.600000X1.600000*%
%ADD23R,1.500000X1.500000*%
%ADD24C,1.500000*%
%ADD25R,0.650000X1.200000*%
%ADD26R,0.450000X1.400000*%
%ADD27O,2.200000X2.200000*%
%ADD28R,2.200000X2.200000*%
G04 APERTURE END LIST*
D10*
X29626152Y-55831856D02*
X30292819Y-55831856D01*
X29245200Y-56069951D02*
X29959485Y-56308046D01*
X29959485Y-56308046D02*
X29959485Y-55688999D01*
X29626152Y-54879475D02*
X30292819Y-54879475D01*
X29245200Y-55117570D02*
X29959485Y-55355665D01*
X29959485Y-55355665D02*
X29959485Y-54736618D01*
X30197580Y-54355665D02*
X30245200Y-54308046D01*
X30245200Y-54308046D02*
X30292819Y-54355665D01*
X30292819Y-54355665D02*
X30245200Y-54403284D01*
X30245200Y-54403284D02*
X30197580Y-54355665D01*
X30197580Y-54355665D02*
X30292819Y-54355665D01*
X29626152Y-53450904D02*
X30292819Y-53450904D01*
X29245200Y-53688999D02*
X29959485Y-53927094D01*
X29959485Y-53927094D02*
X29959485Y-53308047D01*
X29292819Y-52450904D02*
X29292819Y-52927094D01*
X29292819Y-52927094D02*
X29769009Y-52974713D01*
X29769009Y-52974713D02*
X29721390Y-52927094D01*
X29721390Y-52927094D02*
X29673771Y-52831856D01*
X29673771Y-52831856D02*
X29673771Y-52593761D01*
X29673771Y-52593761D02*
X29721390Y-52498523D01*
X29721390Y-52498523D02*
X29769009Y-52450904D01*
X29769009Y-52450904D02*
X29864247Y-52403285D01*
X29864247Y-52403285D02*
X30102342Y-52403285D01*
X30102342Y-52403285D02*
X30197580Y-52450904D01*
X30197580Y-52450904D02*
X30245200Y-52498523D01*
X30245200Y-52498523D02*
X30292819Y-52593761D01*
X30292819Y-52593761D02*
X30292819Y-52831856D01*
X30292819Y-52831856D02*
X30245200Y-52927094D01*
X30245200Y-52927094D02*
X30197580Y-52974713D01*
X29292819Y-51784237D02*
X29292819Y-51688999D01*
X29292819Y-51688999D02*
X29340438Y-51593761D01*
X29340438Y-51593761D02*
X29388057Y-51546142D01*
X29388057Y-51546142D02*
X29483295Y-51498523D01*
X29483295Y-51498523D02*
X29673771Y-51450904D01*
X29673771Y-51450904D02*
X29911866Y-51450904D01*
X29911866Y-51450904D02*
X30102342Y-51498523D01*
X30102342Y-51498523D02*
X30197580Y-51546142D01*
X30197580Y-51546142D02*
X30245200Y-51593761D01*
X30245200Y-51593761D02*
X30292819Y-51688999D01*
X30292819Y-51688999D02*
X30292819Y-51784237D01*
X30292819Y-51784237D02*
X30245200Y-51879475D01*
X30245200Y-51879475D02*
X30197580Y-51927094D01*
X30197580Y-51927094D02*
X30102342Y-51974713D01*
X30102342Y-51974713D02*
X29911866Y-52022332D01*
X29911866Y-52022332D02*
X29673771Y-52022332D01*
X29673771Y-52022332D02*
X29483295Y-51974713D01*
X29483295Y-51974713D02*
X29388057Y-51927094D01*
X29388057Y-51927094D02*
X29340438Y-51879475D01*
X29340438Y-51879475D02*
X29292819Y-51784237D01*
X29292819Y-50831856D02*
X29292819Y-50736618D01*
X29292819Y-50736618D02*
X29340438Y-50641380D01*
X29340438Y-50641380D02*
X29388057Y-50593761D01*
X29388057Y-50593761D02*
X29483295Y-50546142D01*
X29483295Y-50546142D02*
X29673771Y-50498523D01*
X29673771Y-50498523D02*
X29911866Y-50498523D01*
X29911866Y-50498523D02*
X30102342Y-50546142D01*
X30102342Y-50546142D02*
X30197580Y-50593761D01*
X30197580Y-50593761D02*
X30245200Y-50641380D01*
X30245200Y-50641380D02*
X30292819Y-50736618D01*
X30292819Y-50736618D02*
X30292819Y-50831856D01*
X30292819Y-50831856D02*
X30245200Y-50927094D01*
X30245200Y-50927094D02*
X30197580Y-50974713D01*
X30197580Y-50974713D02*
X30102342Y-51022332D01*
X30102342Y-51022332D02*
X29911866Y-51069951D01*
X29911866Y-51069951D02*
X29673771Y-51069951D01*
X29673771Y-51069951D02*
X29483295Y-51022332D01*
X29483295Y-51022332D02*
X29388057Y-50974713D01*
X29388057Y-50974713D02*
X29340438Y-50927094D01*
X29340438Y-50927094D02*
X29292819Y-50831856D01*
X30292819Y-49308046D02*
X29626152Y-49308046D01*
X29721390Y-49308046D02*
X29673771Y-49260427D01*
X29673771Y-49260427D02*
X29626152Y-49165189D01*
X29626152Y-49165189D02*
X29626152Y-49022332D01*
X29626152Y-49022332D02*
X29673771Y-48927094D01*
X29673771Y-48927094D02*
X29769009Y-48879475D01*
X29769009Y-48879475D02*
X30292819Y-48879475D01*
X29769009Y-48879475D02*
X29673771Y-48831856D01*
X29673771Y-48831856D02*
X29626152Y-48736618D01*
X29626152Y-48736618D02*
X29626152Y-48593761D01*
X29626152Y-48593761D02*
X29673771Y-48498522D01*
X29673771Y-48498522D02*
X29769009Y-48450903D01*
X29769009Y-48450903D02*
X30292819Y-48450903D01*
X30292819Y-47974713D02*
X29626152Y-47974713D01*
X29721390Y-47974713D02*
X29673771Y-47927094D01*
X29673771Y-47927094D02*
X29626152Y-47831856D01*
X29626152Y-47831856D02*
X29626152Y-47688999D01*
X29626152Y-47688999D02*
X29673771Y-47593761D01*
X29673771Y-47593761D02*
X29769009Y-47546142D01*
X29769009Y-47546142D02*
X30292819Y-47546142D01*
X29769009Y-47546142D02*
X29673771Y-47498523D01*
X29673771Y-47498523D02*
X29626152Y-47403285D01*
X29626152Y-47403285D02*
X29626152Y-47260428D01*
X29626152Y-47260428D02*
X29673771Y-47165189D01*
X29673771Y-47165189D02*
X29769009Y-47117570D01*
X29769009Y-47117570D02*
X30292819Y-47117570D01*
X39124000Y-29464000D02*
X30401580Y-29464000D01*
X39124000Y-73914000D02*
X30401580Y-73914000D01*
X30988000Y-29464000D02*
X30988000Y-73914000D01*
X30988000Y-29464000D02*
X30988000Y-73914000D01*
X30988000Y-29464000D02*
X31574421Y-30590504D01*
X30988000Y-29464000D02*
X30401579Y-30590504D01*
X30988000Y-73914000D02*
X30401579Y-72787496D01*
X30988000Y-73914000D02*
X31574421Y-72787496D01*
X64103762Y-23958819D02*
X63627572Y-23958819D01*
X63627572Y-23958819D02*
X63579953Y-24435009D01*
X63579953Y-24435009D02*
X63627572Y-24387390D01*
X63627572Y-24387390D02*
X63722810Y-24339771D01*
X63722810Y-24339771D02*
X63960905Y-24339771D01*
X63960905Y-24339771D02*
X64056143Y-24387390D01*
X64056143Y-24387390D02*
X64103762Y-24435009D01*
X64103762Y-24435009D02*
X64151381Y-24530247D01*
X64151381Y-24530247D02*
X64151381Y-24768342D01*
X64151381Y-24768342D02*
X64103762Y-24863580D01*
X64103762Y-24863580D02*
X64056143Y-24911200D01*
X64056143Y-24911200D02*
X63960905Y-24958819D01*
X63960905Y-24958819D02*
X63722810Y-24958819D01*
X63722810Y-24958819D02*
X63627572Y-24911200D01*
X63627572Y-24911200D02*
X63579953Y-24863580D01*
X64484715Y-23958819D02*
X65151381Y-23958819D01*
X65151381Y-23958819D02*
X64722810Y-24958819D01*
X65532334Y-24863580D02*
X65579953Y-24911200D01*
X65579953Y-24911200D02*
X65532334Y-24958819D01*
X65532334Y-24958819D02*
X65484715Y-24911200D01*
X65484715Y-24911200D02*
X65532334Y-24863580D01*
X65532334Y-24863580D02*
X65532334Y-24958819D01*
X66532333Y-24958819D02*
X65960905Y-24958819D01*
X66246619Y-24958819D02*
X66246619Y-23958819D01*
X66246619Y-23958819D02*
X66151381Y-24101676D01*
X66151381Y-24101676D02*
X66056143Y-24196914D01*
X66056143Y-24196914D02*
X65960905Y-24244533D01*
X67437095Y-23958819D02*
X66960905Y-23958819D01*
X66960905Y-23958819D02*
X66913286Y-24435009D01*
X66913286Y-24435009D02*
X66960905Y-24387390D01*
X66960905Y-24387390D02*
X67056143Y-24339771D01*
X67056143Y-24339771D02*
X67294238Y-24339771D01*
X67294238Y-24339771D02*
X67389476Y-24387390D01*
X67389476Y-24387390D02*
X67437095Y-24435009D01*
X67437095Y-24435009D02*
X67484714Y-24530247D01*
X67484714Y-24530247D02*
X67484714Y-24768342D01*
X67484714Y-24768342D02*
X67437095Y-24863580D01*
X67437095Y-24863580D02*
X67389476Y-24911200D01*
X67389476Y-24911200D02*
X67294238Y-24958819D01*
X67294238Y-24958819D02*
X67056143Y-24958819D01*
X67056143Y-24958819D02*
X66960905Y-24911200D01*
X66960905Y-24911200D02*
X66913286Y-24863580D01*
X68103762Y-23958819D02*
X68199000Y-23958819D01*
X68199000Y-23958819D02*
X68294238Y-24006438D01*
X68294238Y-24006438D02*
X68341857Y-24054057D01*
X68341857Y-24054057D02*
X68389476Y-24149295D01*
X68389476Y-24149295D02*
X68437095Y-24339771D01*
X68437095Y-24339771D02*
X68437095Y-24577866D01*
X68437095Y-24577866D02*
X68389476Y-24768342D01*
X68389476Y-24768342D02*
X68341857Y-24863580D01*
X68341857Y-24863580D02*
X68294238Y-24911200D01*
X68294238Y-24911200D02*
X68199000Y-24958819D01*
X68199000Y-24958819D02*
X68103762Y-24958819D01*
X68103762Y-24958819D02*
X68008524Y-24911200D01*
X68008524Y-24911200D02*
X67960905Y-24863580D01*
X67960905Y-24863580D02*
X67913286Y-24768342D01*
X67913286Y-24768342D02*
X67865667Y-24577866D01*
X67865667Y-24577866D02*
X67865667Y-24339771D01*
X67865667Y-24339771D02*
X67913286Y-24149295D01*
X67913286Y-24149295D02*
X67960905Y-24054057D01*
X67960905Y-24054057D02*
X68008524Y-24006438D01*
X68008524Y-24006438D02*
X68103762Y-23958819D01*
X69056143Y-23958819D02*
X69151381Y-23958819D01*
X69151381Y-23958819D02*
X69246619Y-24006438D01*
X69246619Y-24006438D02*
X69294238Y-24054057D01*
X69294238Y-24054057D02*
X69341857Y-24149295D01*
X69341857Y-24149295D02*
X69389476Y-24339771D01*
X69389476Y-24339771D02*
X69389476Y-24577866D01*
X69389476Y-24577866D02*
X69341857Y-24768342D01*
X69341857Y-24768342D02*
X69294238Y-24863580D01*
X69294238Y-24863580D02*
X69246619Y-24911200D01*
X69246619Y-24911200D02*
X69151381Y-24958819D01*
X69151381Y-24958819D02*
X69056143Y-24958819D01*
X69056143Y-24958819D02*
X68960905Y-24911200D01*
X68960905Y-24911200D02*
X68913286Y-24863580D01*
X68913286Y-24863580D02*
X68865667Y-24768342D01*
X68865667Y-24768342D02*
X68818048Y-24577866D01*
X68818048Y-24577866D02*
X68818048Y-24339771D01*
X68818048Y-24339771D02*
X68865667Y-24149295D01*
X68865667Y-24149295D02*
X68913286Y-24054057D01*
X68913286Y-24054057D02*
X68960905Y-24006438D01*
X68960905Y-24006438D02*
X69056143Y-23958819D01*
X70579953Y-24958819D02*
X70579953Y-24292152D01*
X70579953Y-24387390D02*
X70627572Y-24339771D01*
X70627572Y-24339771D02*
X70722810Y-24292152D01*
X70722810Y-24292152D02*
X70865667Y-24292152D01*
X70865667Y-24292152D02*
X70960905Y-24339771D01*
X70960905Y-24339771D02*
X71008524Y-24435009D01*
X71008524Y-24435009D02*
X71008524Y-24958819D01*
X71008524Y-24435009D02*
X71056143Y-24339771D01*
X71056143Y-24339771D02*
X71151381Y-24292152D01*
X71151381Y-24292152D02*
X71294238Y-24292152D01*
X71294238Y-24292152D02*
X71389477Y-24339771D01*
X71389477Y-24339771D02*
X71437096Y-24435009D01*
X71437096Y-24435009D02*
X71437096Y-24958819D01*
X71913286Y-24958819D02*
X71913286Y-24292152D01*
X71913286Y-24387390D02*
X71960905Y-24339771D01*
X71960905Y-24339771D02*
X72056143Y-24292152D01*
X72056143Y-24292152D02*
X72199000Y-24292152D01*
X72199000Y-24292152D02*
X72294238Y-24339771D01*
X72294238Y-24339771D02*
X72341857Y-24435009D01*
X72341857Y-24435009D02*
X72341857Y-24958819D01*
X72341857Y-24435009D02*
X72389476Y-24339771D01*
X72389476Y-24339771D02*
X72484714Y-24292152D01*
X72484714Y-24292152D02*
X72627571Y-24292152D01*
X72627571Y-24292152D02*
X72722810Y-24339771D01*
X72722810Y-24339771D02*
X72770429Y-24435009D01*
X72770429Y-24435009D02*
X72770429Y-24958819D01*
X39624000Y-28964000D02*
X39624000Y-25067580D01*
X96774000Y-28964000D02*
X96774000Y-25067580D01*
X39624000Y-25654000D02*
X96774000Y-25654000D01*
X39624000Y-25654000D02*
X96774000Y-25654000D01*
X39624000Y-25654000D02*
X40750504Y-25067579D01*
X39624000Y-25654000D02*
X40750504Y-26240421D01*
X96774000Y-25654000D02*
X95647496Y-26240421D01*
X96774000Y-25654000D02*
X95647496Y-25067579D01*
X93012180Y-32848779D02*
X94012180Y-32848779D01*
X94012180Y-32848779D02*
X93297895Y-33182112D01*
X93297895Y-33182112D02*
X94012180Y-33515445D01*
X94012180Y-33515445D02*
X93012180Y-33515445D01*
X93012180Y-33991636D02*
X94012180Y-33991636D01*
X93012180Y-34467826D02*
X94012180Y-34467826D01*
X94012180Y-34467826D02*
X93012180Y-35039254D01*
X93012180Y-35039254D02*
X94012180Y-35039254D01*
X93012180Y-36277350D02*
X94012180Y-36277350D01*
X94012180Y-36277350D02*
X94012180Y-36658302D01*
X94012180Y-36658302D02*
X93964561Y-36753540D01*
X93964561Y-36753540D02*
X93916942Y-36801159D01*
X93916942Y-36801159D02*
X93821704Y-36848778D01*
X93821704Y-36848778D02*
X93678847Y-36848778D01*
X93678847Y-36848778D02*
X93583609Y-36801159D01*
X93583609Y-36801159D02*
X93535990Y-36753540D01*
X93535990Y-36753540D02*
X93488371Y-36658302D01*
X93488371Y-36658302D02*
X93488371Y-36277350D01*
X94012180Y-37467826D02*
X94012180Y-37658302D01*
X94012180Y-37658302D02*
X93964561Y-37753540D01*
X93964561Y-37753540D02*
X93869323Y-37848778D01*
X93869323Y-37848778D02*
X93678847Y-37896397D01*
X93678847Y-37896397D02*
X93345514Y-37896397D01*
X93345514Y-37896397D02*
X93155038Y-37848778D01*
X93155038Y-37848778D02*
X93059800Y-37753540D01*
X93059800Y-37753540D02*
X93012180Y-37658302D01*
X93012180Y-37658302D02*
X93012180Y-37467826D01*
X93012180Y-37467826D02*
X93059800Y-37372588D01*
X93059800Y-37372588D02*
X93155038Y-37277350D01*
X93155038Y-37277350D02*
X93345514Y-37229731D01*
X93345514Y-37229731D02*
X93678847Y-37229731D01*
X93678847Y-37229731D02*
X93869323Y-37277350D01*
X93869323Y-37277350D02*
X93964561Y-37372588D01*
X93964561Y-37372588D02*
X94012180Y-37467826D01*
X94012180Y-38229731D02*
X93012180Y-38467826D01*
X93012180Y-38467826D02*
X93726466Y-38658302D01*
X93726466Y-38658302D02*
X93012180Y-38848778D01*
X93012180Y-38848778D02*
X94012180Y-39086874D01*
X93535990Y-39467826D02*
X93535990Y-39801159D01*
X93012180Y-39944016D02*
X93012180Y-39467826D01*
X93012180Y-39467826D02*
X94012180Y-39467826D01*
X94012180Y-39467826D02*
X94012180Y-39944016D01*
X93012180Y-40944016D02*
X93488371Y-40610683D01*
X93012180Y-40372588D02*
X94012180Y-40372588D01*
X94012180Y-40372588D02*
X94012180Y-40753540D01*
X94012180Y-40753540D02*
X93964561Y-40848778D01*
X93964561Y-40848778D02*
X93916942Y-40896397D01*
X93916942Y-40896397D02*
X93821704Y-40944016D01*
X93821704Y-40944016D02*
X93678847Y-40944016D01*
X93678847Y-40944016D02*
X93583609Y-40896397D01*
X93583609Y-40896397D02*
X93535990Y-40848778D01*
X93535990Y-40848778D02*
X93488371Y-40753540D01*
X93488371Y-40753540D02*
X93488371Y-40372588D01*
X93059800Y-42086874D02*
X93012180Y-42229731D01*
X93012180Y-42229731D02*
X93012180Y-42467826D01*
X93012180Y-42467826D02*
X93059800Y-42563064D01*
X93059800Y-42563064D02*
X93107419Y-42610683D01*
X93107419Y-42610683D02*
X93202657Y-42658302D01*
X93202657Y-42658302D02*
X93297895Y-42658302D01*
X93297895Y-42658302D02*
X93393133Y-42610683D01*
X93393133Y-42610683D02*
X93440752Y-42563064D01*
X93440752Y-42563064D02*
X93488371Y-42467826D01*
X93488371Y-42467826D02*
X93535990Y-42277350D01*
X93535990Y-42277350D02*
X93583609Y-42182112D01*
X93583609Y-42182112D02*
X93631228Y-42134493D01*
X93631228Y-42134493D02*
X93726466Y-42086874D01*
X93726466Y-42086874D02*
X93821704Y-42086874D01*
X93821704Y-42086874D02*
X93916942Y-42134493D01*
X93916942Y-42134493D02*
X93964561Y-42182112D01*
X93964561Y-42182112D02*
X94012180Y-42277350D01*
X94012180Y-42277350D02*
X94012180Y-42515445D01*
X94012180Y-42515445D02*
X93964561Y-42658302D01*
X94012180Y-43086874D02*
X93202657Y-43086874D01*
X93202657Y-43086874D02*
X93107419Y-43134493D01*
X93107419Y-43134493D02*
X93059800Y-43182112D01*
X93059800Y-43182112D02*
X93012180Y-43277350D01*
X93012180Y-43277350D02*
X93012180Y-43467826D01*
X93012180Y-43467826D02*
X93059800Y-43563064D01*
X93059800Y-43563064D02*
X93107419Y-43610683D01*
X93107419Y-43610683D02*
X93202657Y-43658302D01*
X93202657Y-43658302D02*
X94012180Y-43658302D01*
X93012180Y-44134493D02*
X94012180Y-44134493D01*
X94012180Y-44134493D02*
X94012180Y-44515445D01*
X94012180Y-44515445D02*
X93964561Y-44610683D01*
X93964561Y-44610683D02*
X93916942Y-44658302D01*
X93916942Y-44658302D02*
X93821704Y-44705921D01*
X93821704Y-44705921D02*
X93678847Y-44705921D01*
X93678847Y-44705921D02*
X93583609Y-44658302D01*
X93583609Y-44658302D02*
X93535990Y-44610683D01*
X93535990Y-44610683D02*
X93488371Y-44515445D01*
X93488371Y-44515445D02*
X93488371Y-44134493D01*
X93012180Y-45134493D02*
X94012180Y-45134493D01*
X94012180Y-45134493D02*
X94012180Y-45515445D01*
X94012180Y-45515445D02*
X93964561Y-45610683D01*
X93964561Y-45610683D02*
X93916942Y-45658302D01*
X93916942Y-45658302D02*
X93821704Y-45705921D01*
X93821704Y-45705921D02*
X93678847Y-45705921D01*
X93678847Y-45705921D02*
X93583609Y-45658302D01*
X93583609Y-45658302D02*
X93535990Y-45610683D01*
X93535990Y-45610683D02*
X93488371Y-45515445D01*
X93488371Y-45515445D02*
X93488371Y-45134493D01*
X93012180Y-46610683D02*
X93012180Y-46134493D01*
X93012180Y-46134493D02*
X94012180Y-46134493D01*
X93488371Y-47134493D02*
X93012180Y-47134493D01*
X94012180Y-46801160D02*
X93488371Y-47134493D01*
X93488371Y-47134493D02*
X94012180Y-47467826D01*
X93107419Y-47801160D02*
X93059800Y-47848779D01*
X93059800Y-47848779D02*
X93012180Y-47801160D01*
X93012180Y-47801160D02*
X93059800Y-47753541D01*
X93059800Y-47753541D02*
X93107419Y-47801160D01*
X93107419Y-47801160D02*
X93012180Y-47801160D01*
X93631228Y-47801160D02*
X93583609Y-47848779D01*
X93583609Y-47848779D02*
X93535990Y-47801160D01*
X93535990Y-47801160D02*
X93583609Y-47753541D01*
X93583609Y-47753541D02*
X93631228Y-47801160D01*
X93631228Y-47801160D02*
X93535990Y-47801160D01*
X93012180Y-49563064D02*
X93012180Y-48991636D01*
X93012180Y-49277350D02*
X94012180Y-49277350D01*
X94012180Y-49277350D02*
X93869323Y-49182112D01*
X93869323Y-49182112D02*
X93774085Y-49086874D01*
X93774085Y-49086874D02*
X93726466Y-48991636D01*
X93916942Y-49944017D02*
X93964561Y-49991636D01*
X93964561Y-49991636D02*
X94012180Y-50086874D01*
X94012180Y-50086874D02*
X94012180Y-50324969D01*
X94012180Y-50324969D02*
X93964561Y-50420207D01*
X93964561Y-50420207D02*
X93916942Y-50467826D01*
X93916942Y-50467826D02*
X93821704Y-50515445D01*
X93821704Y-50515445D02*
X93726466Y-50515445D01*
X93726466Y-50515445D02*
X93583609Y-50467826D01*
X93583609Y-50467826D02*
X93012180Y-49896398D01*
X93012180Y-49896398D02*
X93012180Y-50515445D01*
X94012180Y-50801160D02*
X93012180Y-51134493D01*
X93012180Y-51134493D02*
X94012180Y-51467826D01*
X93012180Y-53086874D02*
X93012180Y-52515446D01*
X93012180Y-52801160D02*
X94012180Y-52801160D01*
X94012180Y-52801160D02*
X93869323Y-52705922D01*
X93869323Y-52705922D02*
X93774085Y-52610684D01*
X93774085Y-52610684D02*
X93726466Y-52515446D01*
X93107419Y-53515446D02*
X93059800Y-53563065D01*
X93059800Y-53563065D02*
X93012180Y-53515446D01*
X93012180Y-53515446D02*
X93059800Y-53467827D01*
X93059800Y-53467827D02*
X93107419Y-53515446D01*
X93107419Y-53515446D02*
X93012180Y-53515446D01*
X94012180Y-54467826D02*
X94012180Y-53991636D01*
X94012180Y-53991636D02*
X93535990Y-53944017D01*
X93535990Y-53944017D02*
X93583609Y-53991636D01*
X93583609Y-53991636D02*
X93631228Y-54086874D01*
X93631228Y-54086874D02*
X93631228Y-54324969D01*
X93631228Y-54324969D02*
X93583609Y-54420207D01*
X93583609Y-54420207D02*
X93535990Y-54467826D01*
X93535990Y-54467826D02*
X93440752Y-54515445D01*
X93440752Y-54515445D02*
X93202657Y-54515445D01*
X93202657Y-54515445D02*
X93107419Y-54467826D01*
X93107419Y-54467826D02*
X93059800Y-54420207D01*
X93059800Y-54420207D02*
X93012180Y-54324969D01*
X93012180Y-54324969D02*
X93012180Y-54086874D01*
X93012180Y-54086874D02*
X93059800Y-53991636D01*
X93059800Y-53991636D02*
X93107419Y-53944017D01*
X93297895Y-54896398D02*
X93297895Y-55372588D01*
X93012180Y-54801160D02*
X94012180Y-55134493D01*
X94012180Y-55134493D02*
X93012180Y-55467826D01*
X91925990Y-33182112D02*
X91925990Y-32848779D01*
X91402180Y-32848779D02*
X92402180Y-32848779D01*
X92402180Y-32848779D02*
X92402180Y-33324969D01*
X91687895Y-33658303D02*
X91687895Y-34134493D01*
X91402180Y-33563065D02*
X92402180Y-33896398D01*
X92402180Y-33896398D02*
X91402180Y-34229731D01*
X91402180Y-34563065D02*
X92402180Y-34563065D01*
X92402180Y-34563065D02*
X91402180Y-35134493D01*
X91402180Y-35134493D02*
X92402180Y-35134493D01*
X91402180Y-36372589D02*
X92402180Y-36372589D01*
X92402180Y-36372589D02*
X91687895Y-36705922D01*
X91687895Y-36705922D02*
X92402180Y-37039255D01*
X92402180Y-37039255D02*
X91402180Y-37039255D01*
X91687895Y-37467827D02*
X91687895Y-37944017D01*
X91402180Y-37372589D02*
X92402180Y-37705922D01*
X92402180Y-37705922D02*
X91402180Y-38039255D01*
X92402180Y-38277351D02*
X91402180Y-38944017D01*
X92402180Y-38944017D02*
X91402180Y-38277351D01*
X91497419Y-39324970D02*
X91449800Y-39372589D01*
X91449800Y-39372589D02*
X91402180Y-39324970D01*
X91402180Y-39324970D02*
X91449800Y-39277351D01*
X91449800Y-39277351D02*
X91497419Y-39324970D01*
X91497419Y-39324970D02*
X91402180Y-39324970D01*
X92021228Y-39324970D02*
X91973609Y-39372589D01*
X91973609Y-39372589D02*
X91925990Y-39324970D01*
X91925990Y-39324970D02*
X91973609Y-39277351D01*
X91973609Y-39277351D02*
X92021228Y-39324970D01*
X92021228Y-39324970D02*
X91925990Y-39324970D01*
X92068847Y-40991636D02*
X91402180Y-40991636D01*
X92449800Y-40753541D02*
X91735514Y-40515446D01*
X91735514Y-40515446D02*
X91735514Y-41134493D01*
X89792180Y-32848779D02*
X90792180Y-32848779D01*
X90792180Y-32848779D02*
X90792180Y-33086874D01*
X90792180Y-33086874D02*
X90744561Y-33229731D01*
X90744561Y-33229731D02*
X90649323Y-33324969D01*
X90649323Y-33324969D02*
X90554085Y-33372588D01*
X90554085Y-33372588D02*
X90363609Y-33420207D01*
X90363609Y-33420207D02*
X90220752Y-33420207D01*
X90220752Y-33420207D02*
X90030276Y-33372588D01*
X90030276Y-33372588D02*
X89935038Y-33324969D01*
X89935038Y-33324969D02*
X89839800Y-33229731D01*
X89839800Y-33229731D02*
X89792180Y-33086874D01*
X89792180Y-33086874D02*
X89792180Y-32848779D01*
X90077895Y-33801160D02*
X90077895Y-34277350D01*
X89792180Y-33705922D02*
X90792180Y-34039255D01*
X90792180Y-34039255D02*
X89792180Y-34372588D01*
X90792180Y-34563065D02*
X90792180Y-35134493D01*
X89792180Y-34848779D02*
X90792180Y-34848779D01*
X90315990Y-35467827D02*
X90315990Y-35801160D01*
X89792180Y-35944017D02*
X89792180Y-35467827D01*
X89792180Y-35467827D02*
X90792180Y-35467827D01*
X90792180Y-35467827D02*
X90792180Y-35944017D01*
X89887419Y-36372589D02*
X89839800Y-36420208D01*
X89839800Y-36420208D02*
X89792180Y-36372589D01*
X89792180Y-36372589D02*
X89839800Y-36324970D01*
X89839800Y-36324970D02*
X89887419Y-36372589D01*
X89887419Y-36372589D02*
X89792180Y-36372589D01*
X90411228Y-36372589D02*
X90363609Y-36420208D01*
X90363609Y-36420208D02*
X90315990Y-36372589D01*
X90315990Y-36372589D02*
X90363609Y-36324970D01*
X90363609Y-36324970D02*
X90411228Y-36372589D01*
X90411228Y-36372589D02*
X90315990Y-36372589D01*
X89792180Y-37610684D02*
X90792180Y-37610684D01*
X90792180Y-37610684D02*
X90077895Y-37944017D01*
X90077895Y-37944017D02*
X90792180Y-38277350D01*
X90792180Y-38277350D02*
X89792180Y-38277350D01*
X90077895Y-38705922D02*
X90077895Y-39182112D01*
X89792180Y-38610684D02*
X90792180Y-38944017D01*
X90792180Y-38944017D02*
X89792180Y-39277350D01*
X89792180Y-40182112D02*
X90268371Y-39848779D01*
X89792180Y-39610684D02*
X90792180Y-39610684D01*
X90792180Y-39610684D02*
X90792180Y-39991636D01*
X90792180Y-39991636D02*
X90744561Y-40086874D01*
X90744561Y-40086874D02*
X90696942Y-40134493D01*
X90696942Y-40134493D02*
X90601704Y-40182112D01*
X90601704Y-40182112D02*
X90458847Y-40182112D01*
X90458847Y-40182112D02*
X90363609Y-40134493D01*
X90363609Y-40134493D02*
X90315990Y-40086874D01*
X90315990Y-40086874D02*
X90268371Y-39991636D01*
X90268371Y-39991636D02*
X90268371Y-39610684D01*
X89887419Y-41182112D02*
X89839800Y-41134493D01*
X89839800Y-41134493D02*
X89792180Y-40991636D01*
X89792180Y-40991636D02*
X89792180Y-40896398D01*
X89792180Y-40896398D02*
X89839800Y-40753541D01*
X89839800Y-40753541D02*
X89935038Y-40658303D01*
X89935038Y-40658303D02*
X90030276Y-40610684D01*
X90030276Y-40610684D02*
X90220752Y-40563065D01*
X90220752Y-40563065D02*
X90363609Y-40563065D01*
X90363609Y-40563065D02*
X90554085Y-40610684D01*
X90554085Y-40610684D02*
X90649323Y-40658303D01*
X90649323Y-40658303D02*
X90744561Y-40753541D01*
X90744561Y-40753541D02*
X90792180Y-40896398D01*
X90792180Y-40896398D02*
X90792180Y-40991636D01*
X90792180Y-40991636D02*
X90744561Y-41134493D01*
X90744561Y-41134493D02*
X90696942Y-41182112D01*
X89792180Y-41610684D02*
X90792180Y-41610684D01*
X90315990Y-41610684D02*
X90315990Y-42182112D01*
X89792180Y-42182112D02*
X90792180Y-42182112D01*
X90696942Y-43372589D02*
X90744561Y-43420208D01*
X90744561Y-43420208D02*
X90792180Y-43515446D01*
X90792180Y-43515446D02*
X90792180Y-43753541D01*
X90792180Y-43753541D02*
X90744561Y-43848779D01*
X90744561Y-43848779D02*
X90696942Y-43896398D01*
X90696942Y-43896398D02*
X90601704Y-43944017D01*
X90601704Y-43944017D02*
X90506466Y-43944017D01*
X90506466Y-43944017D02*
X90363609Y-43896398D01*
X90363609Y-43896398D02*
X89792180Y-43324970D01*
X89792180Y-43324970D02*
X89792180Y-43944017D01*
X90792180Y-44563065D02*
X90792180Y-44658303D01*
X90792180Y-44658303D02*
X90744561Y-44753541D01*
X90744561Y-44753541D02*
X90696942Y-44801160D01*
X90696942Y-44801160D02*
X90601704Y-44848779D01*
X90601704Y-44848779D02*
X90411228Y-44896398D01*
X90411228Y-44896398D02*
X90173133Y-44896398D01*
X90173133Y-44896398D02*
X89982657Y-44848779D01*
X89982657Y-44848779D02*
X89887419Y-44801160D01*
X89887419Y-44801160D02*
X89839800Y-44753541D01*
X89839800Y-44753541D02*
X89792180Y-44658303D01*
X89792180Y-44658303D02*
X89792180Y-44563065D01*
X89792180Y-44563065D02*
X89839800Y-44467827D01*
X89839800Y-44467827D02*
X89887419Y-44420208D01*
X89887419Y-44420208D02*
X89982657Y-44372589D01*
X89982657Y-44372589D02*
X90173133Y-44324970D01*
X90173133Y-44324970D02*
X90411228Y-44324970D01*
X90411228Y-44324970D02*
X90601704Y-44372589D01*
X90601704Y-44372589D02*
X90696942Y-44420208D01*
X90696942Y-44420208D02*
X90744561Y-44467827D01*
X90744561Y-44467827D02*
X90792180Y-44563065D01*
X90696942Y-45277351D02*
X90744561Y-45324970D01*
X90744561Y-45324970D02*
X90792180Y-45420208D01*
X90792180Y-45420208D02*
X90792180Y-45658303D01*
X90792180Y-45658303D02*
X90744561Y-45753541D01*
X90744561Y-45753541D02*
X90696942Y-45801160D01*
X90696942Y-45801160D02*
X90601704Y-45848779D01*
X90601704Y-45848779D02*
X90506466Y-45848779D01*
X90506466Y-45848779D02*
X90363609Y-45801160D01*
X90363609Y-45801160D02*
X89792180Y-45229732D01*
X89792180Y-45229732D02*
X89792180Y-45848779D01*
X90458847Y-46705922D02*
X89792180Y-46705922D01*
X90839800Y-46467827D02*
X90125514Y-46229732D01*
X90125514Y-46229732D02*
X90125514Y-46848779D01*
X68272819Y-50204666D02*
X67796628Y-50537999D01*
X68272819Y-50776094D02*
X67272819Y-50776094D01*
X67272819Y-50776094D02*
X67272819Y-50395142D01*
X67272819Y-50395142D02*
X67320438Y-50299904D01*
X67320438Y-50299904D02*
X67368057Y-50252285D01*
X67368057Y-50252285D02*
X67463295Y-50204666D01*
X67463295Y-50204666D02*
X67606152Y-50204666D01*
X67606152Y-50204666D02*
X67701390Y-50252285D01*
X67701390Y-50252285D02*
X67749009Y-50299904D01*
X67749009Y-50299904D02*
X67796628Y-50395142D01*
X67796628Y-50395142D02*
X67796628Y-50776094D01*
X67272819Y-49871332D02*
X67272819Y-49252285D01*
X67272819Y-49252285D02*
X67653771Y-49585618D01*
X67653771Y-49585618D02*
X67653771Y-49442761D01*
X67653771Y-49442761D02*
X67701390Y-49347523D01*
X67701390Y-49347523D02*
X67749009Y-49299904D01*
X67749009Y-49299904D02*
X67844247Y-49252285D01*
X67844247Y-49252285D02*
X68082342Y-49252285D01*
X68082342Y-49252285D02*
X68177580Y-49299904D01*
X68177580Y-49299904D02*
X68225200Y-49347523D01*
X68225200Y-49347523D02*
X68272819Y-49442761D01*
X68272819Y-49442761D02*
X68272819Y-49728475D01*
X68272819Y-49728475D02*
X68225200Y-49823713D01*
X68225200Y-49823713D02*
X68177580Y-49871332D01*
X57350819Y-50204666D02*
X56874628Y-50537999D01*
X57350819Y-50776094D02*
X56350819Y-50776094D01*
X56350819Y-50776094D02*
X56350819Y-50395142D01*
X56350819Y-50395142D02*
X56398438Y-50299904D01*
X56398438Y-50299904D02*
X56446057Y-50252285D01*
X56446057Y-50252285D02*
X56541295Y-50204666D01*
X56541295Y-50204666D02*
X56684152Y-50204666D01*
X56684152Y-50204666D02*
X56779390Y-50252285D01*
X56779390Y-50252285D02*
X56827009Y-50299904D01*
X56827009Y-50299904D02*
X56874628Y-50395142D01*
X56874628Y-50395142D02*
X56874628Y-50776094D01*
X56446057Y-49823713D02*
X56398438Y-49776094D01*
X56398438Y-49776094D02*
X56350819Y-49680856D01*
X56350819Y-49680856D02*
X56350819Y-49442761D01*
X56350819Y-49442761D02*
X56398438Y-49347523D01*
X56398438Y-49347523D02*
X56446057Y-49299904D01*
X56446057Y-49299904D02*
X56541295Y-49252285D01*
X56541295Y-49252285D02*
X56636533Y-49252285D01*
X56636533Y-49252285D02*
X56779390Y-49299904D01*
X56779390Y-49299904D02*
X57350819Y-49871332D01*
X57350819Y-49871332D02*
X57350819Y-49252285D01*
X62938819Y-50458666D02*
X62462628Y-50791999D01*
X62938819Y-51030094D02*
X61938819Y-51030094D01*
X61938819Y-51030094D02*
X61938819Y-50649142D01*
X61938819Y-50649142D02*
X61986438Y-50553904D01*
X61986438Y-50553904D02*
X62034057Y-50506285D01*
X62034057Y-50506285D02*
X62129295Y-50458666D01*
X62129295Y-50458666D02*
X62272152Y-50458666D01*
X62272152Y-50458666D02*
X62367390Y-50506285D01*
X62367390Y-50506285D02*
X62415009Y-50553904D01*
X62415009Y-50553904D02*
X62462628Y-50649142D01*
X62462628Y-50649142D02*
X62462628Y-51030094D01*
X62938819Y-49506285D02*
X62938819Y-50077713D01*
X62938819Y-49791999D02*
X61938819Y-49791999D01*
X61938819Y-49791999D02*
X62081676Y-49887237D01*
X62081676Y-49887237D02*
X62176914Y-49982475D01*
X62176914Y-49982475D02*
X62224533Y-50077713D01*
X70271333Y-68805580D02*
X70223714Y-68853200D01*
X70223714Y-68853200D02*
X70080857Y-68900819D01*
X70080857Y-68900819D02*
X69985619Y-68900819D01*
X69985619Y-68900819D02*
X69842762Y-68853200D01*
X69842762Y-68853200D02*
X69747524Y-68757961D01*
X69747524Y-68757961D02*
X69699905Y-68662723D01*
X69699905Y-68662723D02*
X69652286Y-68472247D01*
X69652286Y-68472247D02*
X69652286Y-68329390D01*
X69652286Y-68329390D02*
X69699905Y-68138914D01*
X69699905Y-68138914D02*
X69747524Y-68043676D01*
X69747524Y-68043676D02*
X69842762Y-67948438D01*
X69842762Y-67948438D02*
X69985619Y-67900819D01*
X69985619Y-67900819D02*
X70080857Y-67900819D01*
X70080857Y-67900819D02*
X70223714Y-67948438D01*
X70223714Y-67948438D02*
X70271333Y-67996057D01*
X71223714Y-68900819D02*
X70652286Y-68900819D01*
X70938000Y-68900819D02*
X70938000Y-67900819D01*
X70938000Y-67900819D02*
X70842762Y-68043676D01*
X70842762Y-68043676D02*
X70747524Y-68138914D01*
X70747524Y-68138914D02*
X70652286Y-68186533D01*
X78297580Y-62396666D02*
X78345200Y-62444285D01*
X78345200Y-62444285D02*
X78392819Y-62587142D01*
X78392819Y-62587142D02*
X78392819Y-62682380D01*
X78392819Y-62682380D02*
X78345200Y-62825237D01*
X78345200Y-62825237D02*
X78249961Y-62920475D01*
X78249961Y-62920475D02*
X78154723Y-62968094D01*
X78154723Y-62968094D02*
X77964247Y-63015713D01*
X77964247Y-63015713D02*
X77821390Y-63015713D01*
X77821390Y-63015713D02*
X77630914Y-62968094D01*
X77630914Y-62968094D02*
X77535676Y-62920475D01*
X77535676Y-62920475D02*
X77440438Y-62825237D01*
X77440438Y-62825237D02*
X77392819Y-62682380D01*
X77392819Y-62682380D02*
X77392819Y-62587142D01*
X77392819Y-62587142D02*
X77440438Y-62444285D01*
X77440438Y-62444285D02*
X77488057Y-62396666D01*
X77488057Y-62015713D02*
X77440438Y-61968094D01*
X77440438Y-61968094D02*
X77392819Y-61872856D01*
X77392819Y-61872856D02*
X77392819Y-61634761D01*
X77392819Y-61634761D02*
X77440438Y-61539523D01*
X77440438Y-61539523D02*
X77488057Y-61491904D01*
X77488057Y-61491904D02*
X77583295Y-61444285D01*
X77583295Y-61444285D02*
X77678533Y-61444285D01*
X77678533Y-61444285D02*
X77821390Y-61491904D01*
X77821390Y-61491904D02*
X78392819Y-62063332D01*
X78392819Y-62063332D02*
X78392819Y-61444285D01*
D11*
X87458333Y-65610318D02*
X87034999Y-65005556D01*
X86732618Y-65610318D02*
X86732618Y-64340318D01*
X86732618Y-64340318D02*
X87216428Y-64340318D01*
X87216428Y-64340318D02*
X87337380Y-64400794D01*
X87337380Y-64400794D02*
X87397857Y-64461270D01*
X87397857Y-64461270D02*
X87458333Y-64582222D01*
X87458333Y-64582222D02*
X87458333Y-64763651D01*
X87458333Y-64763651D02*
X87397857Y-64884603D01*
X87397857Y-64884603D02*
X87337380Y-64945080D01*
X87337380Y-64945080D02*
X87216428Y-65005556D01*
X87216428Y-65005556D02*
X86732618Y-65005556D01*
X88546904Y-64763651D02*
X88546904Y-65610318D01*
X88244523Y-64279842D02*
X87942142Y-65186984D01*
X87942142Y-65186984D02*
X88728333Y-65186984D01*
X48344667Y-55692318D02*
X48344667Y-56599461D01*
X48344667Y-56599461D02*
X48284190Y-56780889D01*
X48284190Y-56780889D02*
X48163238Y-56901842D01*
X48163238Y-56901842D02*
X47981809Y-56962318D01*
X47981809Y-56962318D02*
X47860857Y-56962318D01*
X49554190Y-55692318D02*
X48949428Y-55692318D01*
X48949428Y-55692318D02*
X48888952Y-56297080D01*
X48888952Y-56297080D02*
X48949428Y-56236603D01*
X48949428Y-56236603D02*
X49070381Y-56176127D01*
X49070381Y-56176127D02*
X49372762Y-56176127D01*
X49372762Y-56176127D02*
X49493714Y-56236603D01*
X49493714Y-56236603D02*
X49554190Y-56297080D01*
X49554190Y-56297080D02*
X49614667Y-56418032D01*
X49614667Y-56418032D02*
X49614667Y-56720413D01*
X49614667Y-56720413D02*
X49554190Y-56841365D01*
X49554190Y-56841365D02*
X49493714Y-56901842D01*
X49493714Y-56901842D02*
X49372762Y-56962318D01*
X49372762Y-56962318D02*
X49070381Y-56962318D01*
X49070381Y-56962318D02*
X48949428Y-56901842D01*
X48949428Y-56901842D02*
X48888952Y-56841365D01*
X48011842Y-49949619D02*
X48072318Y-49768190D01*
X48072318Y-49768190D02*
X48072318Y-49465809D01*
X48072318Y-49465809D02*
X48011842Y-49344857D01*
X48011842Y-49344857D02*
X47951365Y-49284381D01*
X47951365Y-49284381D02*
X47830413Y-49223904D01*
X47830413Y-49223904D02*
X47709461Y-49223904D01*
X47709461Y-49223904D02*
X47588508Y-49284381D01*
X47588508Y-49284381D02*
X47528032Y-49344857D01*
X47528032Y-49344857D02*
X47467556Y-49465809D01*
X47467556Y-49465809D02*
X47407080Y-49707714D01*
X47407080Y-49707714D02*
X47346603Y-49828666D01*
X47346603Y-49828666D02*
X47286127Y-49889143D01*
X47286127Y-49889143D02*
X47165175Y-49949619D01*
X47165175Y-49949619D02*
X47044222Y-49949619D01*
X47044222Y-49949619D02*
X46923270Y-49889143D01*
X46923270Y-49889143D02*
X46862794Y-49828666D01*
X46862794Y-49828666D02*
X46802318Y-49707714D01*
X46802318Y-49707714D02*
X46802318Y-49405333D01*
X46802318Y-49405333D02*
X46862794Y-49223904D01*
X48072318Y-48014380D02*
X48072318Y-48740095D01*
X48072318Y-48377238D02*
X46802318Y-48377238D01*
X46802318Y-48377238D02*
X46983746Y-48498190D01*
X46983746Y-48498190D02*
X47104699Y-48619142D01*
X47104699Y-48619142D02*
X47165175Y-48740095D01*
D10*
X81900819Y-48952094D02*
X80900819Y-48952094D01*
X80900819Y-48952094D02*
X80900819Y-48713999D01*
X80900819Y-48713999D02*
X80948438Y-48571142D01*
X80948438Y-48571142D02*
X81043676Y-48475904D01*
X81043676Y-48475904D02*
X81138914Y-48428285D01*
X81138914Y-48428285D02*
X81329390Y-48380666D01*
X81329390Y-48380666D02*
X81472247Y-48380666D01*
X81472247Y-48380666D02*
X81662723Y-48428285D01*
X81662723Y-48428285D02*
X81757961Y-48475904D01*
X81757961Y-48475904D02*
X81853200Y-48571142D01*
X81853200Y-48571142D02*
X81900819Y-48713999D01*
X81900819Y-48713999D02*
X81900819Y-48952094D01*
X80996057Y-47999713D02*
X80948438Y-47952094D01*
X80948438Y-47952094D02*
X80900819Y-47856856D01*
X80900819Y-47856856D02*
X80900819Y-47618761D01*
X80900819Y-47618761D02*
X80948438Y-47523523D01*
X80948438Y-47523523D02*
X80996057Y-47475904D01*
X80996057Y-47475904D02*
X81091295Y-47428285D01*
X81091295Y-47428285D02*
X81186533Y-47428285D01*
X81186533Y-47428285D02*
X81329390Y-47475904D01*
X81329390Y-47475904D02*
X81900819Y-48047332D01*
X81900819Y-48047332D02*
X81900819Y-47428285D01*
X82220819Y-52285904D02*
X81220819Y-52285904D01*
X82220819Y-51714476D02*
X81649390Y-52143047D01*
X81220819Y-51714476D02*
X81792247Y-52285904D01*
D11*
X56980634Y-37912318D02*
X56980634Y-38819461D01*
X56980634Y-38819461D02*
X56920157Y-39000889D01*
X56920157Y-39000889D02*
X56799205Y-39121842D01*
X56799205Y-39121842D02*
X56617776Y-39182318D01*
X56617776Y-39182318D02*
X56496824Y-39182318D01*
X57524919Y-38033270D02*
X57585395Y-37972794D01*
X57585395Y-37972794D02*
X57706348Y-37912318D01*
X57706348Y-37912318D02*
X58008729Y-37912318D01*
X58008729Y-37912318D02*
X58129681Y-37972794D01*
X58129681Y-37972794D02*
X58190157Y-38033270D01*
X58190157Y-38033270D02*
X58250634Y-38154222D01*
X58250634Y-38154222D02*
X58250634Y-38275175D01*
X58250634Y-38275175D02*
X58190157Y-38456603D01*
X58190157Y-38456603D02*
X57464443Y-39182318D01*
X57464443Y-39182318D02*
X58250634Y-39182318D01*
X82888667Y-37912318D02*
X82888667Y-38819461D01*
X82888667Y-38819461D02*
X82828190Y-39000889D01*
X82828190Y-39000889D02*
X82707238Y-39121842D01*
X82707238Y-39121842D02*
X82525809Y-39182318D01*
X82525809Y-39182318D02*
X82404857Y-39182318D01*
X84037714Y-38335651D02*
X84037714Y-39182318D01*
X83735333Y-37851842D02*
X83432952Y-38758984D01*
X83432952Y-38758984D02*
X84219143Y-38758984D01*
X44026667Y-37658318D02*
X44026667Y-38565461D01*
X44026667Y-38565461D02*
X43966190Y-38746889D01*
X43966190Y-38746889D02*
X43845238Y-38867842D01*
X43845238Y-38867842D02*
X43663809Y-38928318D01*
X43663809Y-38928318D02*
X43542857Y-38928318D01*
X45296667Y-38928318D02*
X44570952Y-38928318D01*
X44933809Y-38928318D02*
X44933809Y-37658318D01*
X44933809Y-37658318D02*
X44812857Y-37839746D01*
X44812857Y-37839746D02*
X44691905Y-37960699D01*
X44691905Y-37960699D02*
X44570952Y-38021175D01*
X70237047Y-67497270D02*
X70116095Y-67436794D01*
X70116095Y-67436794D02*
X69995142Y-67315842D01*
X69995142Y-67315842D02*
X69813714Y-67134413D01*
X69813714Y-67134413D02*
X69692761Y-67073937D01*
X69692761Y-67073937D02*
X69571809Y-67073937D01*
X69632285Y-67376318D02*
X69511333Y-67315842D01*
X69511333Y-67315842D02*
X69390380Y-67194889D01*
X69390380Y-67194889D02*
X69329904Y-66952984D01*
X69329904Y-66952984D02*
X69329904Y-66529651D01*
X69329904Y-66529651D02*
X69390380Y-66287746D01*
X69390380Y-66287746D02*
X69511333Y-66166794D01*
X69511333Y-66166794D02*
X69632285Y-66106318D01*
X69632285Y-66106318D02*
X69874190Y-66106318D01*
X69874190Y-66106318D02*
X69995142Y-66166794D01*
X69995142Y-66166794D02*
X70116095Y-66287746D01*
X70116095Y-66287746D02*
X70176571Y-66529651D01*
X70176571Y-66529651D02*
X70176571Y-66952984D01*
X70176571Y-66952984D02*
X70116095Y-67194889D01*
X70116095Y-67194889D02*
X69995142Y-67315842D01*
X69995142Y-67315842D02*
X69874190Y-67376318D01*
X69874190Y-67376318D02*
X69632285Y-67376318D01*
X71386095Y-67376318D02*
X70660380Y-67376318D01*
X71023237Y-67376318D02*
X71023237Y-66106318D01*
X71023237Y-66106318D02*
X70902285Y-66287746D01*
X70902285Y-66287746D02*
X70781333Y-66408699D01*
X70781333Y-66408699D02*
X70660380Y-66469175D01*
X61788318Y-64231762D02*
X60518318Y-64231762D01*
X61667365Y-62901285D02*
X61727842Y-62961761D01*
X61727842Y-62961761D02*
X61788318Y-63143190D01*
X61788318Y-63143190D02*
X61788318Y-63264142D01*
X61788318Y-63264142D02*
X61727842Y-63445571D01*
X61727842Y-63445571D02*
X61606889Y-63566523D01*
X61606889Y-63566523D02*
X61485937Y-63627000D01*
X61485937Y-63627000D02*
X61244032Y-63687476D01*
X61244032Y-63687476D02*
X61062603Y-63687476D01*
X61062603Y-63687476D02*
X60820699Y-63627000D01*
X60820699Y-63627000D02*
X60699746Y-63566523D01*
X60699746Y-63566523D02*
X60578794Y-63445571D01*
X60578794Y-63445571D02*
X60518318Y-63264142D01*
X60518318Y-63264142D02*
X60518318Y-63143190D01*
X60518318Y-63143190D02*
X60578794Y-62961761D01*
X60578794Y-62961761D02*
X60639270Y-62901285D01*
X61788318Y-61691761D02*
X61788318Y-62417476D01*
X61788318Y-62054619D02*
X60518318Y-62054619D01*
X60518318Y-62054619D02*
X60699746Y-62175571D01*
X60699746Y-62175571D02*
X60820699Y-62296523D01*
X60820699Y-62296523D02*
X60881175Y-62417476D01*
D10*
X79790819Y-48952094D02*
X78790819Y-48952094D01*
X78790819Y-48952094D02*
X78790819Y-48713999D01*
X78790819Y-48713999D02*
X78838438Y-48571142D01*
X78838438Y-48571142D02*
X78933676Y-48475904D01*
X78933676Y-48475904D02*
X79028914Y-48428285D01*
X79028914Y-48428285D02*
X79219390Y-48380666D01*
X79219390Y-48380666D02*
X79362247Y-48380666D01*
X79362247Y-48380666D02*
X79552723Y-48428285D01*
X79552723Y-48428285D02*
X79647961Y-48475904D01*
X79647961Y-48475904D02*
X79743200Y-48571142D01*
X79743200Y-48571142D02*
X79790819Y-48713999D01*
X79790819Y-48713999D02*
X79790819Y-48952094D01*
X78790819Y-48047332D02*
X78790819Y-47428285D01*
X78790819Y-47428285D02*
X79171771Y-47761618D01*
X79171771Y-47761618D02*
X79171771Y-47618761D01*
X79171771Y-47618761D02*
X79219390Y-47523523D01*
X79219390Y-47523523D02*
X79267009Y-47475904D01*
X79267009Y-47475904D02*
X79362247Y-47428285D01*
X79362247Y-47428285D02*
X79600342Y-47428285D01*
X79600342Y-47428285D02*
X79695580Y-47475904D01*
X79695580Y-47475904D02*
X79743200Y-47523523D01*
X79743200Y-47523523D02*
X79790819Y-47618761D01*
X79790819Y-47618761D02*
X79790819Y-47904475D01*
X79790819Y-47904475D02*
X79743200Y-47999713D01*
X79743200Y-47999713D02*
X79695580Y-48047332D01*
X79702819Y-43695904D02*
X78702819Y-43695904D01*
X79702819Y-43124476D02*
X79131390Y-43553047D01*
X78702819Y-43124476D02*
X79274247Y-43695904D01*
D11*
X69934701Y-37912318D02*
X69934701Y-38819461D01*
X69934701Y-38819461D02*
X69874224Y-39000889D01*
X69874224Y-39000889D02*
X69753272Y-39121842D01*
X69753272Y-39121842D02*
X69571843Y-39182318D01*
X69571843Y-39182318D02*
X69450891Y-39182318D01*
X70418510Y-37912318D02*
X71204701Y-37912318D01*
X71204701Y-37912318D02*
X70781367Y-38396127D01*
X70781367Y-38396127D02*
X70962796Y-38396127D01*
X70962796Y-38396127D02*
X71083748Y-38456603D01*
X71083748Y-38456603D02*
X71144224Y-38517080D01*
X71144224Y-38517080D02*
X71204701Y-38638032D01*
X71204701Y-38638032D02*
X71204701Y-38940413D01*
X71204701Y-38940413D02*
X71144224Y-39061365D01*
X71144224Y-39061365D02*
X71083748Y-39121842D01*
X71083748Y-39121842D02*
X70962796Y-39182318D01*
X70962796Y-39182318D02*
X70599939Y-39182318D01*
X70599939Y-39182318D02*
X70478986Y-39121842D01*
X70478986Y-39121842D02*
X70418510Y-39061365D01*
D10*
X70050819Y-50776094D02*
X69050819Y-50776094D01*
X69050819Y-50776094D02*
X69050819Y-50537999D01*
X69050819Y-50537999D02*
X69098438Y-50395142D01*
X69098438Y-50395142D02*
X69193676Y-50299904D01*
X69193676Y-50299904D02*
X69288914Y-50252285D01*
X69288914Y-50252285D02*
X69479390Y-50204666D01*
X69479390Y-50204666D02*
X69622247Y-50204666D01*
X69622247Y-50204666D02*
X69812723Y-50252285D01*
X69812723Y-50252285D02*
X69907961Y-50299904D01*
X69907961Y-50299904D02*
X70003200Y-50395142D01*
X70003200Y-50395142D02*
X70050819Y-50537999D01*
X70050819Y-50537999D02*
X70050819Y-50776094D01*
X70050819Y-49252285D02*
X70050819Y-49823713D01*
X70050819Y-49537999D02*
X69050819Y-49537999D01*
X69050819Y-49537999D02*
X69193676Y-49633237D01*
X69193676Y-49633237D02*
X69288914Y-49728475D01*
X69288914Y-49728475D02*
X69336533Y-49823713D01*
X70050819Y-44965904D02*
X69050819Y-44965904D01*
X70050819Y-44394476D02*
X69479390Y-44823047D01*
X69050819Y-44394476D02*
X69622247Y-44965904D01*
D12*
%TO.C,R3*%
X65532000Y-45444000D02*
X65532000Y-46214000D01*
X65532000Y-53524000D02*
X65532000Y-52754000D01*
X64162000Y-52754000D02*
X66902000Y-52754000D01*
X66902000Y-46214000D02*
X64162000Y-46214000D01*
X66902000Y-52754000D02*
X66902000Y-46214000D01*
X64162000Y-46214000D02*
X64162000Y-52754000D01*
%TO.C,R2*%
X54610000Y-53524000D02*
X54610000Y-52754000D01*
X54610000Y-45444000D02*
X54610000Y-46214000D01*
X55980000Y-46214000D02*
X53240000Y-46214000D01*
X53240000Y-52754000D02*
X55980000Y-52754000D01*
X53240000Y-46214000D02*
X53240000Y-52754000D01*
X55980000Y-52754000D02*
X55980000Y-46214000D01*
%TO.C,R1*%
X59944000Y-53524000D02*
X59944000Y-52754000D01*
X59944000Y-45444000D02*
X59944000Y-46214000D01*
X61314000Y-46214000D02*
X58574000Y-46214000D01*
X58574000Y-52754000D02*
X61314000Y-52754000D01*
X58574000Y-46214000D02*
X58574000Y-52754000D01*
X61314000Y-52754000D02*
X61314000Y-46214000D01*
%TO.C,C1*%
X68418000Y-72286000D02*
X72458000Y-72286000D01*
X72458000Y-69446000D02*
X68418000Y-69446000D01*
X66478000Y-70866000D02*
X68418000Y-70866000D01*
X72458000Y-72286000D02*
X72458000Y-69446000D01*
X68418000Y-69446000D02*
X68418000Y-72286000D01*
X74398000Y-70866000D02*
X72458000Y-70866000D01*
%TO.C,C2*%
X74383000Y-64850000D02*
X74068000Y-64850000D01*
X76808000Y-59610000D02*
X76808000Y-64850000D01*
X74068000Y-59610000D02*
X74068000Y-64850000D01*
X76808000Y-64850000D02*
X76493000Y-64850000D01*
X74383000Y-59610000D02*
X74068000Y-59610000D01*
X76808000Y-59610000D02*
X76493000Y-59610000D01*
D13*
%TO.C,R4*%
X92520000Y-71936000D02*
X82820000Y-71936000D01*
X92520000Y-68936000D02*
X92520000Y-71936000D01*
X92520000Y-63936000D02*
X92520000Y-59436000D01*
X92520000Y-59436000D02*
X91670000Y-59436000D01*
D14*
X90270000Y-58236000D02*
X90270000Y-58236000D01*
X90070000Y-58236000D02*
X90070000Y-58236000D01*
D13*
X83670000Y-59436000D02*
X82820000Y-59436000D01*
X82820000Y-71936000D02*
X82820000Y-68936000D01*
X82820000Y-59436000D02*
X82820000Y-63936000D01*
D14*
X90070000Y-58236000D02*
G75*
G03*
X90270000Y-58236000I100000J0D01*
G01*
X90270000Y-58236000D02*
G75*
G03*
X90070000Y-58236000I-100000J0D01*
G01*
D13*
%TO.C,J5*%
X41830000Y-58785000D02*
X41830000Y-68585000D01*
X41830000Y-68585000D02*
X56330000Y-68585000D01*
X48830000Y-58785000D02*
X41830000Y-58785000D01*
X56330000Y-68585000D02*
X56330000Y-66685000D01*
D14*
X58830000Y-63585000D02*
X58830000Y-63585000D01*
X58830000Y-63785000D02*
X58830000Y-63785000D01*
X58830000Y-63785000D02*
G75*
G03*
X58830000Y-63585000I0J100000D01*
G01*
X58830000Y-63585000D02*
G75*
G03*
X58830000Y-63785000I0J-100000D01*
G01*
D13*
%TO.C,S1*%
X43434000Y-53982000D02*
G75*
G03*
X43434000Y-53882000I0J50000D01*
G01*
X43434000Y-53882000D02*
G75*
G03*
X43434000Y-53982000I0J-50000D01*
G01*
D14*
X45384000Y-44582000D02*
X45384000Y-53382000D01*
X41484000Y-44582000D02*
X45384000Y-44582000D01*
X45384000Y-53382000D02*
X41484000Y-53382000D01*
X41484000Y-53382000D02*
X41484000Y-44582000D01*
D13*
X43434000Y-53882000D02*
X43434000Y-53882000D01*
X43434000Y-53982000D02*
X43434000Y-53982000D01*
D12*
%TO.C,D2*%
X83566000Y-45444000D02*
X83566000Y-46094000D01*
X84686000Y-46094000D02*
X82446000Y-46094000D01*
X82446000Y-46094000D02*
X82446000Y-50334000D01*
X82446000Y-49494000D02*
X84686000Y-49494000D01*
X82446000Y-49614000D02*
X84686000Y-49614000D01*
X82446000Y-49734000D02*
X84686000Y-49734000D01*
X84686000Y-50334000D02*
X84686000Y-46094000D01*
X82446000Y-50334000D02*
X84686000Y-50334000D01*
X83566000Y-50984000D02*
X83566000Y-50334000D01*
D14*
%TO.C,J2*%
X53672300Y-30278000D02*
X53672300Y-33528000D01*
X54862300Y-36628000D02*
X61142300Y-36628000D01*
X61142300Y-30278000D02*
X53672300Y-30278000D01*
X61142300Y-36628000D02*
X61142300Y-30278000D01*
%TO.C,J4*%
X87047000Y-36628000D02*
X87047000Y-30278000D01*
X87047000Y-30278000D02*
X79577000Y-30278000D01*
X80767000Y-36628000D02*
X87047000Y-36628000D01*
X79577000Y-30278000D02*
X79577000Y-33528000D01*
%TO.C,J1*%
X40720000Y-30278000D02*
X40720000Y-33528000D01*
X41910000Y-36628000D02*
X48190000Y-36628000D01*
X48190000Y-30278000D02*
X40720000Y-30278000D01*
X48190000Y-36628000D02*
X48190000Y-30278000D01*
%TO.C,Q1*%
X68823000Y-65184000D02*
X68823000Y-63984000D01*
X68908000Y-63634000D02*
X68908000Y-63434000D01*
X71808000Y-63634000D02*
X68908000Y-63634000D01*
X68908000Y-63434000D02*
X71808000Y-63434000D01*
X71808000Y-63434000D02*
X71808000Y-63634000D01*
%TO.C,IC1*%
X65508000Y-61334000D02*
X65508000Y-63634000D01*
X62508000Y-61334000D02*
X65508000Y-61334000D01*
X65508000Y-63634000D02*
X62508000Y-63634000D01*
X62508000Y-63634000D02*
X62508000Y-61334000D01*
X62458000Y-65384000D02*
X62458000Y-63984000D01*
D12*
%TO.C,D3*%
X77216000Y-50984000D02*
X77216000Y-50334000D01*
X76096000Y-50334000D02*
X78336000Y-50334000D01*
X78336000Y-50334000D02*
X78336000Y-46094000D01*
X78336000Y-46934000D02*
X76096000Y-46934000D01*
X78336000Y-46814000D02*
X76096000Y-46814000D01*
X78336000Y-46694000D02*
X76096000Y-46694000D01*
X76096000Y-46094000D02*
X76096000Y-50334000D01*
X78336000Y-46094000D02*
X76096000Y-46094000D01*
X77216000Y-45444000D02*
X77216000Y-46094000D01*
D14*
%TO.C,J3*%
X66624700Y-30278000D02*
X66624700Y-33528000D01*
X67814700Y-36628000D02*
X74094700Y-36628000D01*
X74094700Y-30278000D02*
X66624700Y-30278000D01*
X74094700Y-36628000D02*
X74094700Y-30278000D01*
D12*
%TO.C,D1*%
X72136000Y-53524000D02*
X72136000Y-52504000D01*
X70666000Y-52504000D02*
X73606000Y-52504000D01*
X73606000Y-52504000D02*
X73606000Y-47064000D01*
X73606000Y-48084000D02*
X70666000Y-48084000D01*
X73606000Y-47964000D02*
X70666000Y-47964000D01*
X73606000Y-47844000D02*
X70666000Y-47844000D01*
X70666000Y-47064000D02*
X70666000Y-52504000D01*
X73606000Y-47064000D02*
X70666000Y-47064000D01*
X72136000Y-46044000D02*
X72136000Y-47064000D01*
%TD*%
%LPC*%
D15*
%TO.C,R3*%
X65532000Y-54564000D03*
D16*
X65532000Y-44404000D03*
%TD*%
D15*
%TO.C,R2*%
X54610000Y-44404000D03*
D16*
X54610000Y-54564000D03*
%TD*%
D15*
%TO.C,R1*%
X59944000Y-44404000D03*
D16*
X59944000Y-54564000D03*
%TD*%
D15*
%TO.C,C1*%
X65438000Y-70866000D03*
D16*
X75438000Y-70866000D03*
%TD*%
D15*
%TO.C,C2*%
X75438000Y-59730000D03*
X75438000Y-64730000D03*
%TD*%
D17*
%TO.C,R4*%
X90170000Y-59436000D03*
X87670000Y-59436000D03*
X85170000Y-59436000D03*
D18*
X92070000Y-66436000D03*
X83270000Y-66436000D03*
%TD*%
D19*
%TO.C,J5*%
X55530000Y-63685000D03*
X52580000Y-68585000D03*
X49530000Y-63685000D03*
%TD*%
D20*
%TO.C,S1*%
X43434000Y-46482000D03*
X43434000Y-48982000D03*
D21*
X43434000Y-51482000D03*
%TD*%
D16*
%TO.C,D2*%
X83566000Y-44404000D03*
D22*
X83566000Y-52024000D03*
%TD*%
D23*
%TO.C,J2*%
X54862300Y-33528000D03*
D24*
X57402300Y-33528000D03*
X59942300Y-33528000D03*
%TD*%
%TO.C,J4*%
X85847000Y-33528000D03*
X83307000Y-33528000D03*
D23*
X80767000Y-33528000D03*
%TD*%
%TO.C,J1*%
X41910000Y-33528000D03*
D24*
X44450000Y-33528000D03*
X46990000Y-33528000D03*
%TD*%
D25*
%TO.C,Q1*%
X69398000Y-64584000D03*
X71318000Y-64584000D03*
X70358000Y-62484000D03*
%TD*%
D26*
%TO.C,IC1*%
X63033000Y-60284000D03*
X63683000Y-60284000D03*
X64333000Y-60284000D03*
X64983000Y-60284000D03*
X64983000Y-64684000D03*
X64333000Y-64684000D03*
X63683000Y-64684000D03*
X63033000Y-64684000D03*
%TD*%
D16*
%TO.C,D3*%
X77216000Y-52024000D03*
D22*
X77216000Y-44404000D03*
%TD*%
D23*
%TO.C,J3*%
X67814700Y-33528000D03*
D24*
X70354700Y-33528000D03*
X72894700Y-33528000D03*
%TD*%
D27*
%TO.C,D1*%
X72136000Y-54864000D03*
D28*
X72136000Y-44704000D03*
%TD*%
%LPD*%
M02*
